<?xml version="1.0" encoding="UTF-8"?>
<svg width="34px" height="34px" viewBox="0 0 34 34" version="1.1" xmlns="http://www.w3.org/2000/svg" xmlns:xlink="http://www.w3.org/1999/xlink">
    <!-- Generator: Sketch 53.2 (72643) - https://sketchapp.com -->
    <title>Back to Projects</title>
    <desc>Created with Sketch.</desc>
    <g id="Page-1" stroke="none" stroke-width="1" fill="none" fill-rule="evenodd">
        <g id="GarageSale-App" transform="translate(-703.000000, -2025.000000)" fill="#212121">
            <g id="Back-to-Projects" transform="translate(703.000000, 2025.000000)">
                <g id="Group">
                    <path d="M2.5638852,-1.03584031e-16 L7.4361148,1.03584031e-16 C8.32763354,-6.01853049e-17 8.65091978,0.0928256111 8.9768457,0.267132704 C9.30277163,0.441439796 9.5585602,0.697228371 9.7328673,1.0231543 C9.90717439,1.34908022 10,1.67236646 10,2.5638852 L10,7.4361148 C10,8.32763354 9.90717439,8.65091978 9.7328673,8.9768457 C9.5585602,9.30277163 9.30277163,9.5585602 8.9768457,9.7328673 C8.65091978,9.90717439 8.32763354,10 7.4361148,10 L2.5638852,10 C1.67236646,10 1.34908022,9.90717439 1.0231543,9.7328673 C0.697228371,9.5585602 0.441439796,9.30277163 0.267132704,8.9768457 C0.0928256111,8.65091978 4.01235366e-17,8.32763354 -6.90560205e-17,7.4361148 L6.90560205e-17,2.5638852 C-4.01235366e-17,1.67236646 0.0928256111,1.34908022 0.267132704,1.0231543 C0.441439796,0.697228371 0.697228371,0.441439796 1.0231543,0.267132704 C1.34908022,0.0928256111 1.67236646,6.01853049e-17 2.5638852,-1.03584031e-16 Z" id="Rectangle"></path>
                    <path d="M14.5638852,-1.03584031e-16 L19.4361148,1.03584031e-16 C20.3276335,-6.01853049e-17 20.6509198,0.0928256111 20.9768457,0.267132704 C21.3027716,0.441439796 21.5585602,0.697228371 21.7328673,1.0231543 C21.9071744,1.34908022 22,1.67236646 22,2.5638852 L22,7.4361148 C22,8.32763354 21.9071744,8.65091978 21.7328673,8.9768457 C21.5585602,9.30277163 21.3027716,9.5585602 20.9768457,9.7328673 C20.6509198,9.90717439 20.3276335,10 19.4361148,10 L14.5638852,10 C13.6723665,10 13.3490802,9.90717439 13.0231543,9.7328673 C12.6972284,9.5585602 12.4414398,9.30277163 12.2671327,8.9768457 C12.0928256,8.65091978 12,8.32763354 12,7.4361148 L12,2.5638852 C12,1.67236646 12.0928256,1.34908022 12.2671327,1.0231543 C12.4414398,0.697228371 12.6972284,0.441439796 13.0231543,0.267132704 C13.3490802,0.0928256111 13.6723665,6.01853049e-17 14.5638852,-1.03584031e-16 Z" id="Rectangle-Copy"></path>
                    <path d="M26.5638852,-1.03584031e-16 L31.4361148,1.03584031e-16 C32.3276335,-6.01853049e-17 32.6509198,0.0928256111 32.9768457,0.267132704 C33.3027716,0.441439796 33.5585602,0.697228371 33.7328673,1.0231543 C33.9071744,1.34908022 34,1.67236646 34,2.5638852 L34,7.4361148 C34,8.32763354 33.9071744,8.65091978 33.7328673,8.9768457 C33.5585602,9.30277163 33.3027716,9.5585602 32.9768457,9.7328673 C32.6509198,9.90717439 32.3276335,10 31.4361148,10 L26.5638852,10 C25.6723665,10 25.3490802,9.90717439 25.0231543,9.7328673 C24.6972284,9.5585602 24.4414398,9.30277163 24.2671327,8.9768457 C24.0928256,8.65091978 24,8.32763354 24,7.4361148 L24,2.5638852 C24,1.67236646 24.0928256,1.34908022 24.2671327,1.0231543 C24.4414398,0.697228371 24.6972284,0.441439796 25.0231543,0.267132704 C25.3490802,0.0928256111 25.6723665,6.01853049e-17 26.5638852,-1.03584031e-16 Z" id="Rectangle-Copy-2"></path>
                    <path d="M26.5638852,12 L31.4361148,12 C32.3276335,12 32.6509198,12.0928256 32.9768457,12.2671327 C33.3027716,12.4414398 33.5585602,12.6972284 33.7328673,13.0231543 C33.9071744,13.3490802 34,13.6723665 34,14.5638852 L34,19.4361148 C34,20.3276335 33.9071744,20.6509198 33.7328673,20.9768457 C33.5585602,21.3027716 33.3027716,21.5585602 32.9768457,21.7328673 C32.6509198,21.9071744 32.3276335,22 31.4361148,22 L26.5638852,22 C25.6723665,22 25.3490802,21.9071744 25.0231543,21.7328673 C24.6972284,21.5585602 24.4414398,21.3027716 24.2671327,20.9768457 C24.0928256,20.6509198 24,20.3276335 24,19.4361148 L24,14.5638852 C24,13.6723665 24.0928256,13.3490802 24.2671327,13.0231543 C24.4414398,12.6972284 24.6972284,12.4414398 25.0231543,12.2671327 C25.3490802,12.0928256 25.6723665,12 26.5638852,12 Z" id="Rectangle-Copy-3"></path>
                    <path d="M14.5638852,12 L19.4361148,12 C20.3276335,12 20.6509198,12.0928256 20.9768457,12.2671327 C21.3027716,12.4414398 21.5585602,12.6972284 21.7328673,13.0231543 C21.9071744,13.3490802 22,13.6723665 22,14.5638852 L22,19.4361148 C22,20.3276335 21.9071744,20.6509198 21.7328673,20.9768457 C21.5585602,21.3027716 21.3027716,21.5585602 20.9768457,21.7328673 C20.6509198,21.9071744 20.3276335,22 19.4361148,22 L14.5638852,22 C13.6723665,22 13.3490802,21.9071744 13.0231543,21.7328673 C12.6972284,21.5585602 12.4414398,21.3027716 12.2671327,20.9768457 C12.0928256,20.6509198 12,20.3276335 12,19.4361148 L12,14.5638852 C12,13.6723665 12.0928256,13.3490802 12.2671327,13.0231543 C12.4414398,12.6972284 12.6972284,12.4414398 13.0231543,12.2671327 C13.3490802,12.0928256 13.6723665,12 14.5638852,12 Z" id="Rectangle-Copy-4"></path>
                    <path d="M2.5638852,12 L7.4361148,12 C8.32763354,12 8.65091978,12.0928256 8.9768457,12.2671327 C9.30277163,12.4414398 9.5585602,12.6972284 9.7328673,13.0231543 C9.90717439,13.3490802 10,13.6723665 10,14.5638852 L10,19.4361148 C10,20.3276335 9.90717439,20.6509198 9.7328673,20.9768457 C9.5585602,21.3027716 9.30277163,21.5585602 8.9768457,21.7328673 C8.65091978,21.9071744 8.32763354,22 7.4361148,22 L2.5638852,22 C1.67236646,22 1.34908022,21.9071744 1.0231543,21.7328673 C0.697228371,21.5585602 0.441439796,21.3027716 0.267132704,20.9768457 C0.0928256111,20.6509198 4.01235366e-17,20.3276335 -6.90560205e-17,19.4361148 L6.90560205e-17,14.5638852 C-4.01235366e-17,13.6723665 0.0928256111,13.3490802 0.267132704,13.0231543 C0.441439796,12.6972284 0.697228371,12.4414398 1.0231543,12.2671327 C1.34908022,12.0928256 1.67236646,12 2.5638852,12 Z" id="Rectangle-Copy-5"></path>
                    <path d="M2.5638852,24 L7.4361148,24 C8.32763354,24 8.65091978,24.0928256 8.9768457,24.2671327 C9.30277163,24.4414398 9.5585602,24.6972284 9.7328673,25.0231543 C9.90717439,25.3490802 10,25.6723665 10,26.5638852 L10,31.4361148 C10,32.3276335 9.90717439,32.6509198 9.7328673,32.9768457 C9.5585602,33.3027716 9.30277163,33.5585602 8.9768457,33.7328673 C8.65091978,33.9071744 8.32763354,34 7.4361148,34 L2.5638852,34 C1.67236646,34 1.34908022,33.9071744 1.0231543,33.7328673 C0.697228371,33.5585602 0.441439796,33.3027716 0.267132704,32.9768457 C0.0928256111,32.6509198 4.01235366e-17,32.3276335 -6.90560205e-17,31.4361148 L6.90560205e-17,26.5638852 C-4.01235366e-17,25.6723665 0.0928256111,25.3490802 0.267132704,25.0231543 C0.441439796,24.6972284 0.697228371,24.4414398 1.0231543,24.2671327 C1.34908022,24.0928256 1.67236646,24 2.5638852,24 Z" id="Rectangle-Copy-6"></path>
                    <path d="M14.5638852,24 L19.4361148,24 C20.3276335,24 20.6509198,24.0928256 20.9768457,24.2671327 C21.3027716,24.4414398 21.5585602,24.6972284 21.7328673,25.0231543 C21.9071744,25.3490802 22,25.6723665 22,26.5638852 L22,31.4361148 C22,32.3276335 21.9071744,32.6509198 21.7328673,32.9768457 C21.5585602,33.3027716 21.3027716,33.5585602 20.9768457,33.7328673 C20.6509198,33.9071744 20.3276335,34 19.4361148,34 L14.5638852,34 C13.6723665,34 13.3490802,33.9071744 13.0231543,33.7328673 C12.6972284,33.5585602 12.4414398,33.3027716 12.2671327,32.9768457 C12.0928256,32.6509198 12,32.3276335 12,31.4361148 L12,26.5638852 C12,25.6723665 12.0928256,25.3490802 12.2671327,25.0231543 C12.4414398,24.6972284 12.6972284,24.4414398 13.0231543,24.2671327 C13.3490802,24.0928256 13.6723665,24 14.5638852,24 Z" id="Rectangle-Copy-7"></path>
                    <path d="M26.5638852,24 L31.4361148,24 C32.3276335,24 32.6509198,24.0928256 32.9768457,24.2671327 C33.3027716,24.4414398 33.5585602,24.6972284 33.7328673,25.0231543 C33.9071744,25.3490802 34,25.6723665 34,26.5638852 L34,31.4361148 C34,32.3276335 33.9071744,32.6509198 33.7328673,32.9768457 C33.5585602,33.3027716 33.3027716,33.5585602 32.9768457,33.7328673 C32.6509198,33.9071744 32.3276335,34 31.4361148,34 L26.5638852,34 C25.6723665,34 25.3490802,33.9071744 25.0231543,33.7328673 C24.6972284,33.5585602 24.4414398,33.3027716 24.2671327,32.9768457 C24.0928256,32.6509198 24,32.3276335 24,31.4361148 L24,26.5638852 C24,25.6723665 24.0928256,25.3490802 24.2671327,25.0231543 C24.4414398,24.6972284 24.6972284,24.4414398 25.0231543,24.2671327 C25.3490802,24.0928256 25.6723665,24 26.5638852,24 Z" id="Rectangle-Copy-8"></path>
                </g>
            </g>
        </g>
    </g>
</svg>