<?xml version="1.0" encoding="utf-8"?>
<!-- Generator: Adobe Illustrator 23.0.2, SVG Export Plug-In . SVG Version: 6.00 Build 0)  -->
<svg version="1.1" xmlns="http://www.w3.org/2000/svg" xmlns:xlink="http://www.w3.org/1999/xlink" x="0px" y="0px"
	 viewBox="0 0 1082.25 502.09" style="enable-background:new 0 0 1082.25 502.09;" xml:space="preserve">
<style type="text/css">
	.st0{display:none;}
	.st1{display:inline;}
	.st2{font-family:'BodoniSvtyTwoITCTT-Book';}
	.st3{font-size:651px;}
	.st4{letter-spacing:16.21;}
	.st5{font-family:'MrEavesXLSanOT-Book';}
	.st6{font-size:158px;}
	.st7{letter-spacing:28;}
</style>
<g id="Numbers" class="st0">
	<text transform="matrix(1 0 0 1 2894.3315 314.8891)" class="st1" style="font-family:'Futura-Bold'; font-size:229.1199px;">31</text>
	<text transform="matrix(1 0 0 1 1466.7798 284.1846)" class="st1" style="font-family:'Futura-Bold'; font-size:104.0439px;">CA 543792</text>
</g>
<g id="Logo" class="st0">
	<text transform="matrix(1.0487 0 0 1 -8.8757 337.8692)" class="st1 st2 st3 st4">nest</text>
	<text transform="matrix(1 0 0 1 144.2219 471.2833)" class="st1 st5 st6 st7">transport</text>
</g>
<g id="bird" class="st0">
	<path class="st1" d="M471.47,319.44c6.31,3.25,13.71,8.18,20.88,8.17c-0.67-0.21-1.34-0.42-2.01-0.63
		c0.19-0.29,0.53,0.01,0.62-0.25c0.08-0.24-0.12-0.41-0.24-0.59c-1.01-1.45-2.4-2.39-4-3.08c-0.81-0.35-1.62-0.67-2.43-1.03
		c-0.51-0.23-0.91-0.61-1.21-1.09c-0.55-0.88-0.46-1.6,0.34-2.26c1.17-0.96,2.52-1.67,3.8-2.46c0.55-0.34,1.13-0.13,1.68,0.03
		c4.55,1.27,9.2,1.89,13.91,2.07c3.45,0.14,6.86-0.18,10.32-1.12c-1.43,2.37-2.85,4.75-4.3,7.11c-1.37,2.22-2.89,4.35-4.61,6.33
		c-0.29,0.34-0.54,0.54-1.04,0.38c-0.03-0.01-0.07-0.02-0.1-0.03c5.37,1.99,11.02,4.31,16.69,4.92c-0.06-0.02-0.11-0.03-0.17-0.05
		c-0.45-0.13-0.83-0.23-0.99-0.81c-1.07-3.79-3.65-5.5-7.58-5.06c-0.54,0.06-0.58-0.18-0.49-0.55c0.12-0.53,0.25-1.08,0.45-1.58
		c1.63-4.01,3.72-7.79,6.07-11.42c0.28-0.43,0.66-0.73,1.14-0.9c1.45-0.5,2.73-1.3,3.93-2.23c3.95-3.08,7.33-6.73,10.36-10.7
		c0.87-1.14,1.89-1.93,3.19-2.5c4.36-1.93,8.98-2.68,13.66-3.28c3.65-0.47,7.36-0.44,10.96-1.32c0.51-0.12,1.04-0.06,1.56,0.06
		c2.15,0.48,4.3,0.92,6.43,1.46c12.61,3.2,25,7.13,37.32,11.33c0.21,0.07,0.42,0.14,0.63,0.18c0.42,0.09,0.56-0.09,0.44-0.5
		c-0.46-1.58,0.15-2.81,1.36-3.77c0.52-0.41,0.45-0.64-0.07-0.95c-1.2-0.73-2.44-1.38-3.73-1.93c-8.74-3.73-17.83-6.46-26.9-9.24
		c-8.96-2.75-17.99-5.29-26.9-8.19c-1.98-0.65-3.82-1.38-4.97-3.24c-0.09-0.14-0.23-0.24-0.34-0.36c-2.46-2.54-5.28-4.65-8.12-6.73
		c-3.57-2.62-7.16-5.21-11.14-7.2c-0.39-0.2-0.63-0.53-0.85-0.87c-0.98-1.47-2.15-2.79-3.36-4.07c-4.32-4.57-9.11-8.61-14.15-12.35
		c-7.6-5.65-15.62-10.58-24.54-13.88c-4.78-1.77-9.67-3-14.83-2.54c-7.4,0.66-12.54,4.47-15.41,11.3c-1.79,4.25-0.77,3.15-4.74,5.46
		c-1.69,0.98-3.37,1.98-4.86,3.26c-0.58,0.5-0.55,0.73,0.11,1.09c0.24,0.13,0.49,0.25,0.75,0.34c1.98,0.77,3.99,1.41,6.07,1.85
		c0.95,0.2,1.58,0.7,1.87,1.65c0.63,2.12,0.68,4.24-0.19,6.3c-1.86,4.38-2.8,8.9-2.36,13.67c0.42,4.53,1.75,8.77,4.7,12.29
		c4.37,5.21,9.09,10.09,14.23,14.56c4.39,3.81,9.04,7.27,13.98,10.34c0.49,0.31,0.57,0.49,0.01,0.81c-1.5,0.88-3.02,1.7-4.65,2.3
		c-2.1,0.77-4.25,1.21-6.48,1.13C471.22,319.23,471.32,319.37,471.47,319.44z"/>
</g>
<g id="outlined">
	<g>
		<path d="M312,339.17c6.83,0,10.24-1.62,10.24-4.86c0-2.83-2.28-4.25-6.83-4.25h-4.78c-3.65,0-6.14,0-7.51,0
			c-10.48,0-17.07-1.3-19.8-3.91c-1.37-1.3-2.05-8.89-2.05-22.79V154.94c0-36.46-4.1-61.19-12.29-74.21
			c-14.57-23-38.23-34.5-71-34.5c-37.33,0-67.82,14.55-91.48,43.62V58.59c0-8.24-1.6-12.37-4.78-12.37c-2.28,0-5.46,1.74-9.56,5.21
			c-6.38,5.65-17.53,10.64-33.45,14.97c-15.94,4.34-30.72,6.73-44.38,7.16C4.78,73.56,0,75.64,0,79.79c0,3.23,4.54,4.84,13.65,4.84
			h3.41c7.73,0,13.2,0,16.39,0c10.47,0,16.15,2.6,17.07,7.79c0.91,5.2,1.37,32.47,1.37,81.81v141.54l-2.05,9.73
			c-1.37,3.03-5.46,4.55-12.29,4.55c-5.46,0-11.16,0-17.07,0c-8.19,0.76-12.29,2.47-12.29,5.13c0,2.67,3.41,3.99,10.24,3.99h4.1
			c2.73,0,12.4,0,29.02,0c16.61,0,27.42,0,32.43,0c21.85,0,37.77,0,47.79,0h10.92c5.46,0,8.19-1.52,8.19-4.55s-2.31-4.55-6.93-4.55
			l-20.82-0.65c-9.72-0.43-14.57-3.24-14.57-8.44V118.36c0-9.96,2.27-17.75,6.83-23.38c15.47-19.04,34.58-28.57,57.35-28.57
			c23.21,0,38.68,9.74,46.43,29.22c3.64,9.09,5.46,37.24,5.46,84.43v124.7c0,12.12-0.68,19.16-2.05,21.11
			c-1.37,1.95-6.38,3.14-15.02,3.57c-15.02,0.44-23.79,0.88-26.28,1.3c-2.51,0.44-3.76,1.74-3.76,3.9c0,3.03,2.96,4.55,8.88,4.55
			h4.78c8.19,0,34.58,0,79.2,0c14.1,0,25.26,0,33.45,0H312z"/>
		<path d="M829.84,199.53c-12.75-11.74-42.79-26.53-90.12-44.37c-30.5-11.31-45.74-27.84-45.74-49.59c0-13.92,5-25.45,15.02-34.58
			c10.01-9.13,22.75-13.7,38.23-13.7c16.39,0,30.83,4.82,43.35,14.45c12.51,9.64,21.27,22.34,26.28,38.1
			c4.1,13.14,7.51,19.7,10.24,19.7c3.64,0,5.46-1.73,5.46-5.21v-1.3c-2.73-23-3.87-39.71-3.41-50.13V45.57c0-2.17,0-3.47,0-3.91
			c0-3.47-1.58-5.21-4.74-5.21c-2.71,0-4.75,2.18-6.1,6.51c-2.26,8.69-8.13,13.02-17.61,13.02c-3.62,0-7.68-0.65-12.19-1.95
			c-18.06-5.21-31.61-7.81-40.63-7.81c-25.29,0-46.52,8.27-63.67,24.8s-25.73,36.98-25.73,61.33c0,36.54,25.26,63.94,75.78,82.21
			c25.48,9.13,40.85,14.9,46.08,17.29c5.23,2.4,11.03,6.42,17.41,12.07c11.37,10.01,17.07,23.49,17.07,40.45
			c0,15.23-5.01,27.4-15.02,36.54c-10.02,9.13-23.21,13.7-39.6,13.7c-30.5,0-54.85-11.36-73.05-34.11
			c-9.11-11.36-15.02-27.1-17.75-47.22c-0.46-4.8-2.51-7.21-6.14-7.21c-3.19,0-4.78,2.39-4.78,7.16v7.16c0,3.04,0,9.11,0,18.23
			c0,9.11,0,14.32,0,15.62c0,16.93,0,29.73,0,38.41c0,3.04,0,5.64,0,7.81c0,3.47,1.58,5.21,4.75,5.21c3.16,0,5.64-2.6,7.46-7.81
			c3.16-8.24,7.9-12.37,14.24-12.37c4.51,0,9.71,1.53,15.6,4.56c22.15,10.42,40.9,15.62,56.27,15.62c26.67,0,49.6-8.81,68.82-26.43
			c19.2-17.62,28.81-39.04,28.81-64.27C854.42,233.24,846.23,214.76,829.84,199.53z"/>
		<path d="M1077.47,296.21c-2.28,0-4.33,1.09-6.14,3.25c-18.67,16.06-35.5,24.09-50.52,24.09c-17.75,0-28.23-7.7-31.41-23.11
			c-3.19-15.4-4.78-53.48-4.78-114.25V65.75c12.29,0,21.61,0,27.99,0c36.87,0,55.3-3.11,55.3-9.36c0-3.74-1.82-5.61-5.46-5.61
			c-1.37,0-2.97,0.22-4.78,0.65c-8.19,2.18-24.81,3.25-49.84,3.25c-9.56,0-16.39-0.43-20.48-1.3c-1.82-5.21-2.73-16.93-2.73-35.15
			c0-5.21,0-8.89,0-11.07v-2.6c0-3.03-1.59-4.56-4.75-4.56c-4.08,0-7.47,1.98-10.18,5.93c-19.91,30.3-47.49,46.98-82.76,50.06
			c-4.97,0.44-7.46,2.18-7.46,5.21c0,3.04,5,4.56,15.02,4.56h25.94c4.54,0.44,7.05,2.82,7.51,7.14v193.55
			c0,33.78,3.64,54.13,10.92,61.05c12.74,12.12,31.63,18.19,56.67,18.19c26.85,0,50.06-8.46,69.64-25.39
			c11.37-9.98,17.07-16.93,17.07-20.83C1082.25,297.29,1080.65,296.21,1077.47,296.21z"/>
		<path d="M173.93,465.6c-6,0-7.9-5.21-7.9-13.11v-42.35h17.22v-7.11h-17.22v-18.65l-8.38,1.74v16.91h-10.43v7.11h10.43v40.45
			c0,15.17,3.32,22.28,14.38,22.28c6.79,0,10.9-2.37,14.22-5.69l-1.58-4.74C182.14,464.02,178.98,465.6,173.93,465.6z"/>
		<path d="M231.44,416.14l-0.95-13.9l-6.95,1.42v67.63h8.37v-40.77c0-12.01,13.27-21.49,25.75-19.59v-9.8
			C247.24,401.13,236.34,408.4,231.44,416.14z"/>
		<path d="M343.68,460.7v-36.18c0-18.17-9.8-23.54-23.38-23.54c-7.74,0-20.07,4.42-25.91,7.58v8.06c7.27-4.27,18.01-7.9,24.65-7.9
			c11.53,0,16.27,4.58,16.27,15.8v5.37c-24.17,2.37-45.66,10.9-45.66,27.02c0,9.95,7.27,16.12,16.27,16.12
			c7.58,0,18.01-2.69,29.39-13.59v1.11c0,8.69,4.11,12.01,10.27,12.01c2.84,0,5.06-0.95,6.48-2.21v-5.06
			c-1.11,0.63-2.37,1.11-4.11,1.11C345.1,466.39,343.68,464.65,343.68,460.7z M335.31,452.64c-10.11,9.48-21.65,13.27-25.75,13.27
			c-6.32,0-12.01-1.9-12.01-9.32c0-9.48,14.69-17.7,37.76-19.59V452.64z"/>
		<path d="M426.08,401.13c-11.53,0-22.44,7.27-27.49,15.01l-0.95-13.9l-6.95,1.42v67.63h8.37v-40.92
			c0-12.01,15.33-21.33,26.07-21.33c9.96,0,17.22,5.53,17.22,20.54v41.71h8.38V429.1C450.73,413.77,444.25,401.13,426.08,401.13z"/>
		<path d="M515.41,432.1c-9.95-2.53-15.48-5.69-15.48-12.48c0-6.64,4.42-11.22,15.17-11.22c6.16,0,12.8,2.05,17.7,4.74l1.74-6.95
			c-2.84-1.58-10.75-5.21-19.43-5.21c-15.48,0-23.38,8.69-23.38,19.12c0,8.69,6.64,16.27,20.07,19.75
			c12.32,3.16,18.17,6,18.17,12.96c0,9.16-6.79,12.96-16.43,12.96c-8.85,0-17.06-3.32-22.12-6.32l-1.74,7.27
			c3,1.9,12.17,6.64,23.54,6.64c14.54,0,25.12-7.9,25.12-21.96C538.32,442.68,529.94,435.73,515.41,432.1z"/>
		<path d="M614.06,401.13c-9.95,0-20.07,3-27.97,13.27l-0.79-12.17l-6.95,1.42v98.44h8.37v-41.24c7.43,9.16,17.38,12.32,27.33,12.32
			c17.85,0,32.23-14.85,32.23-36.02C646.3,415.98,631.92,401.13,614.06,401.13z M612.48,465.75c-10.43,0-20.7-5.85-25.75-14.85
			v-27.49c5.06-9.01,15.33-14.85,25.75-14.85c13.27,0,25.44,9.8,25.44,28.6C637.92,455.96,625.76,465.75,612.48,465.75z"/>
		<path d="M719.86,400.81c-20.86,0-36.34,16.43-36.34,36.34S699,473.5,719.86,473.5c20.86,0,36.34-16.43,36.34-36.34
			S740.72,400.81,719.86,400.81z M719.86,465.91c-16.27,0-27.97-12.01-27.97-28.76s11.69-28.76,27.97-28.76s27.97,12.01,27.97,28.76
			S736.13,465.91,719.86,465.91z"/>
		<path d="M805.07,416.14l-0.95-13.9l-6.95,1.42v67.63h8.37v-40.77c0-12.01,13.27-21.49,25.75-19.59v-9.8
			C820.87,401.13,809.97,408.4,805.07,416.14z"/>
		<path d="M891.95,465.6c-6,0-7.9-5.21-7.9-13.11v-42.35h17.22v-7.11h-17.22v-18.65l-8.38,1.74v16.91h-10.43v7.11h10.43v40.45
			c0,15.17,3.32,22.28,14.38,22.28c6.79,0,10.9-2.37,14.22-5.69l-1.58-4.74C900.17,464.02,897.01,465.6,891.95,465.6z"/>
		<path d="M605.6,308.34c0.21,0.07,0.42,0.14,0.63,0.18c0.42,0.09,0.56-0.09,0.44-0.5c-0.46-1.58,0.15-2.81,1.36-3.77
			c0.52-0.41,0.45-0.64-0.07-0.95c-1.2-0.73-2.44-1.38-3.73-1.93c-5.7-2.43-11.54-4.43-17.43-6.31c1.11-1.64,2.23-3.31,3.34-5.04
			c7.05-11.07,10.58-18.77,10.58-23.11c0-3.03-1.82-4.56-5.46-4.56c-3.19,0-5.7,1.74-7.51,5.21c-5.13,8.9-10.1,16.62-14.93,23.2
			c-7.47-2.24-14.97-4.41-22.39-6.82c-1.98-0.65-3.82-1.38-4.97-3.24c-0.09-0.14-0.23-0.24-0.34-0.36
			c-2.46-2.54-5.28-4.65-8.12-6.73c-3.57-2.62-7.16-5.21-11.14-7.2c-0.39-0.2-0.63-0.53-0.85-0.87c-0.98-1.47-2.15-2.79-3.36-4.07
			c-4.32-4.57-9.11-8.61-14.15-12.35c-7.6-5.65-15.62-10.58-24.54-13.88c-4.78-1.77-9.67-3-14.83-2.54
			c-7.4,0.66-12.54,4.47-15.41,11.3c-1.79,4.25-0.77,3.15-4.74,5.46c-1.69,0.98-3.37,1.98-4.86,3.26c-0.58,0.5-0.55,0.73,0.11,1.09
			c0.24,0.13,0.49,0.25,0.75,0.35c1.98,0.77,3.99,1.41,6.07,1.85c0.95,0.2,1.58,0.7,1.87,1.65c0.63,2.12,0.68,4.24-0.19,6.3
			c-1.86,4.38-2.8,8.9-2.36,13.67c0.42,4.53,1.75,8.77,4.7,12.29c4.37,5.21,9.09,10.09,14.23,14.56c4.39,3.81,9.04,7.27,13.98,10.34
			c0.49,0.31,0.57,0.49,0.01,0.81c-1.5,0.88-3.02,1.7-4.65,2.3c-1.03,0.38-2.08,0.68-3.15,0.87c-15.99-5.61-29.33-15.58-39.99-29.94
			c-17.53-23.57-26.28-57.19-26.28-100.86c0-12.97,1.13-26.59,3.41-40.87c51.43-1.29,78.74-1.94,81.93-1.94h47.79
			c24.12,0.44,43.46-0.43,58.03-2.6c-1.37-28.21-12.97-51.32-34.82-69.33c-21.85-18-48.93-27.02-81.24-27.02
			c-39.15,0-71.8,14.55-97.97,43.62c-26.18,29.08-39.26,65.32-39.26,108.72c0,41.66,13.76,76.6,41.3,104.81
			c27.53,28.22,61.79,42.31,102.75,42.31c32.77,0,58.94-9.54,78.51-28.64c4.71-4.49,9.37-9.86,13.98-16.07
			C590.33,303.25,597.98,305.75,605.6,308.34z M482.62,55.99c37.32,0,56.89,26.04,58.71,78.12H413.66
			C422.76,82.03,445.75,55.99,482.62,55.99z M483.08,320.94c-0.55-0.88-0.46-1.6,0.34-2.26c1.17-0.96,2.52-1.67,3.8-2.46
			c0.55-0.34,1.13-0.13,1.68,0.03c4.55,1.27,9.2,1.89,13.91,2.07c3.45,0.14,6.86-0.18,10.32-1.12c-1.41,2.33-2.8,4.68-4.23,7
			c-0.12,0-0.23,0-0.35,0c-8.93,0-17.29-0.93-25.1-2.78C483.32,321.27,483.19,321.12,483.08,320.94z M552.25,312.48
			c-10.08,7.21-23.28,11.09-39.57,11.64c1.3-2.65,2.77-5.21,4.37-7.69c0.28-0.43,0.66-0.73,1.14-0.9c1.45-0.5,2.73-1.3,3.93-2.23
			c3.95-3.08,7.33-6.73,10.36-10.7c0.87-1.14,1.89-1.93,3.19-2.5c4.36-1.93,8.98-2.68,13.66-3.28c3.65-0.47,7.36-0.44,10.96-1.32
			c0.51-0.12,1.04-0.06,1.56,0.06c2.07,0.46,4.14,0.89,6.2,1.4C562.59,303.67,557.32,308.85,552.25,312.48z"/>
	</g>
</g>
</svg>
