<?xml version="1.0" encoding="UTF-8"?>
<svg width="15px" height="30px" viewBox="0 0 15 30" version="1.1" xmlns="http://www.w3.org/2000/svg" xmlns:xlink="http://www.w3.org/1999/xlink">
    <!-- Generator: Sketch 53.2 (72643) - https://sketchapp.com -->
    <title>Logo</title>
    <desc>Created with Sketch.</desc>
    <defs>
        <polygon id="path-1" points="0 4.91803279e-05 7.43801613 4.91803279e-05 7.43801613 7.55980328 0 7.55980328"></polygon>
        <polygon id="path-3" points="0.101201613 0.0630737705 7.53919355 0.0630737705 7.53919355 7.62282787 0.101201613 7.62282787"></polygon>
        <polygon id="path-5" points="7.25806452e-05 0.0696393443 14.7972581 0.0696393443 14.7972581 29.9166885 7.25806452e-05 29.9166885"></polygon>
    </defs>
    <g id="Page-1" stroke="none" stroke-width="1" fill="none" fill-rule="evenodd">
        <g id="Main-Page" transform="translate(-301.000000, -26.000000)">
            <g id="Navigation">
                <g id="Logo" transform="translate(301.000000, 26.000000)">
                    <g id="Group-10">
                        <g id="Group-3">
                            <mask id="mask-2" fill="white">
                                <use xlink:href="#path-1"></use>
                            </mask>
                            <g id="Clip-2"></g>
                            <path d="M7.43801613,3.77906557 C7.43801613,3.9627541 7.42446774,4.1427541 7.39954839,4.31980328 L7.39954839,4.323 C7.14043548,6.1522623 5.58987097,7.55980328 3.71970968,7.55980328 C1.66591935,7.55980328 -4.83870968e-05,5.86677049 -4.83870968e-05,3.77906557 C-4.83870968e-05,1.69160656 1.66591935,4.91803279e-05 3.71970968,4.91803279e-05 C5.58987097,4.91803279e-05 7.14043548,1.40586885 7.39954839,3.23513115 L7.39954839,3.23857377 C7.42446774,3.41537705 7.43801613,3.59537705 7.43801613,3.77906557" id="Fill-1" fill="#212121" mask="url(#mask-2)"></path>
                        </g>
                        <g id="Group-6" transform="translate(7.258065, 22.377049)">
                            <mask id="mask-4" fill="white">
                                <use xlink:href="#path-3"></use>
                            </mask>
                            <g id="Clip-5"></g>
                            <path d="M7.53926613,3.84209016 C7.53926613,5.92979508 5.87329839,7.62282787 3.82120161,7.62282787 C1.94958871,7.62282787 0.399024194,6.21528689 0.141362903,4.38602459 C0.11475,4.2077459 0.101201613,4.0275 0.101201613,3.84209016 C0.101201613,3.65692623 0.11475,3.47668033 0.141362903,3.29815574 C0.399024194,1.46889344 1.94958871,0.0630737705 3.82120161,0.0630737705 C5.87329839,0.0630737705 7.53926613,1.75463115 7.53926613,3.84209016" id="Fill-4" fill="#212121" mask="url(#mask-4)"></path>
                        </g>
                        <g id="Group-9">
                            <mask id="mask-6" fill="white">
                                <use xlink:href="#path-5"></use>
                            </mask>
                            <g id="Clip-8"></g>
                            <path d="M14.7973306,3.77906557 C14.7973306,4.35890164 14.668621,4.90627869 14.4412016,5.39759016 L14.4228145,5.43496721 L6.0513629,23.278082 L2.93862097,29.9166885 C1.25934677,29.5512787 7.25806452e-05,28.0348033 7.25806452e-05,26.2190656 C7.25806452e-05,25.6532459 0.122008065,25.1176721 0.342895161,24.6364426 L0.392975806,24.5243115 L8.70587903,6.69127869 L11.7917661,0.0696393443 C13.5044274,0.408 14.7973306,1.93972131 14.7973306,3.77906557" id="Fill-7" fill="#212121" mask="url(#mask-6)"></path>
                        </g>
                    </g>
                </g>
            </g>
        </g>
    </g>
</svg>